:FULLY-SPECIFIED
:FORCE-ALL-JOINTS-BE-3DOF
:DEGREES
81
root 9.31218 16.3883 -25.5435 4.02839 -7.92465 2.4515
lfemur -16.2229 3.0993 -27.1567
ltibia 27.4544 -0 0
lfoot -14.8944 9.40915 -0.000252859
ltoes -1.27744 0 0
rfemur -21.4412 0.229931 17.8532
rtibia 62.2546 -0 0
rfoot -15.2151 -12.3858 0.00655753
rtoes -11.9968 0 0
lowerback -4.85208 -0.983455 -3.69889
upperback -1.4462 -1.17366 2.45873
thorax 1.35675 -0.592901 4.54905
lowerneck -22.4006 -4.07434 -11.4871
upperneck 19.3001 -4.66396 11.7269
head 10.4441 -1.62043 5.42884
lclavicle -1.89549e-14 2.65043e-16 0
lhumerus -27.8585 -12.3981 87.3326
lradius 25.8741 -0 0
lwrist 0.597499 0 0
lhand -2.75727 -17.611 0.182975
lfingers 7.12502 0 0
lthumb 22.939 10.9582 0.150763
rclavicle -1.89549e-14 2.65043e-16 0
rhumerus -43.6853 13.4839 -89.0736
rradius 40.1219 -0 0
rwrist -21.9795 0 0
rhand -30.9537 -23.8543 5.82836e-05
rfingers 7.12502 0 0
rthumb -4.23845 -53.7919 5.59408e-05
82
root 9.3196 16.3801 -25.4302 3.96181 -7.71247 2.56488
lfemur -15.6626 2.91046 -27.3409
ltibia 27.375 -0 0
lfoot -15.1734 9.42214 -0.000284467
ltoes -1.8344 0 0
rfemur -22.3775 0.551714 17.8773
rtibia 61.6752 -0 0
rfoot -15.9301 -12.5172 0.00737732
rtoes -11.904 0 0
lowerback -4.9148 -1.03216 -3.80625
upperback -1.3677 -1.23107 2.44488
thorax 1.48085 -0.626266 4.59042
lowerneck -22.5277 -4.11837 -11.5855
upperneck 19.4593 -4.69745 11.7529
head 10.5331 -1.63713 5.45677
lclavicle -1.88907e-14 -1.19271e-15 0
lhumerus -27.2349 -12.9067 87.2687
lradius 26.4638 -0 0
lwrist 1.24932 0 0
lhand -4.60934 -19.0277 0.205875
lfingers 7.12502 0 0
lthumb 21.1606 9.74272 0.169628
rclavicle -1.88907e-14 -1.19271e-15 0
rhumerus -43.6324 13.4745 -88.9602
rradius 40.0582 -0 0
rwrist -21.9626 0 0
rhand -30.9685 -23.9109 6.5569e-05
rfingers 7.12502 0 0
rthumb -4.25268 -53.8483 6.29334e-05
83
root 9.32702 16.3719 -25.3169 3.89567 -7.50016 2.67796
lfemur -15.1017 2.72344 -27.5269
ltibia 27.2956 -0 0
lfoot -15.4524 9.43512 -0.000252859
ltoes -2.39137 0 0
rfemur -23.3137 0.873847 17.8961
rtibia 61.0957 -0 0
rfoot -16.6451 -12.6485 0.00655753
rtoes -11.8113 0 0
lowerback -4.97742 -1.08098 -3.91356
upperback -1.28918 -1.28845 2.43095
thorax 1.60494 -0.659721 4.63172
lowerneck -22.6548 -4.16262 -11.6839
upperneck 19.6185 -4.73101 11.7788
head 10.6221 -1.65387 5.48468
lclavicle -1.88266e-14 -2.65046e-15 0
lhumerus -26.6093 -13.4146 87.1991
lradius 27.0534 -0 0
lwrist 1.90115 0 0
lhand -6.4614 -20.4444 0.182975
lfingers 7.12502 0 0
lthumb 19.3822 8.52726 0.150763
rclavicle -1.88266e-14 -2.65046e-15 0
rhumerus -43.5795 13.465 -88.8468
rradius 39.9945 -0 0
rwrist -21.9457 0 0
rhand -30.9832 -23.9675 5.82836e-05
rfingers 7.12502 0 0
rthumb -4.2669 -53.9046 5.59408e-05
84
root 9.33443 16.3637 -25.2037 3.83 -7.28773 2.79074
lfemur -14.5404 2.53824 -27.7148
ltibia 27.2163 -0 0
lfoot -15.7314 9.4481 -0.000158036
ltoes -2.94833 0 0
rfemur -24.2499 1.19624 17.9096
rtibia 60.5162 -0 0
rfoot -17.3602 -12.7799 0.00409829
rtoes -11.7186 0 0
lowerback -5.03996 -1.12992 -4.02081
upperback -1.21065 -1.34582 2.41694
thorax 1.729 -0.693265 4.67294
lowerneck -22.7818 -4.20708 -11.7821
upperneck 19.7777 -4.76465 11.8046
head 10.7111 -1.67066 5.51256
lclavicle -1.87624e-14 -4.10822e-15 0
lhumerus -25.9817 -13.9217 87.1235
lradius 27.6431 -0 0
lwrist 2.55297 0 0
lhand -8.31233 -21.8596 0.114312
lfingers 7.12502 0 0
lthumb 17.6046 7.31298 0.0941936
rclavicle -1.87624e-14 -4.10822e-15 0
rhumerus -43.5266 13.4554 -88.7335
rradius 39.9308 -0 0
rwrist -21.9287 0 0
rhand -30.998 -24.0241 3.64272e-05
rfingers 7.12502 0 0
rthumb -4.28113 -53.9609 3.4963e-05
85
root 9.34185 16.3555 -25.0904 3.76477 -7.07516 2.90322
lfemur -13.9785 2.35489 -27.9044
ltibia 27.1369 0 0
lfoot -16.0104 9.46108 0
ltoes -3.5053 0 0
rfemur -25.1862 1.51882 17.9179
rtibia 59.9367 0 0
rfoot -18.0752 -12.9112 0
rtoes -11.6259 0 0
lowerback -5.1024 -1.17897 -4.12802
upperback -1.1321 -1.40317 2.40285
thorax 1.85304 -0.726898 4.71409
lowerneck -22.9087 -4.25176 -11.8803
upperneck 19.9369 -4.79835 11.8303
head 10.8001 -1.68749 5.54042
lclavicle -1.86982e-14 -5.56597e-15 0
lhumerus -25.3521 -14.428 87.0421
lradius 28.2328 0 0
lwrist 3.2048 0 0
lhand -10.161 -23.2719 0
lfingers 7.12502 0 0
lthumb 15.8286 6.10104 0
rclavicle -1.86982e-14 -5.56597e-15 0
rhumerus -43.4737 13.4457 -88.6201
rradius 39.8671 0 0
rwrist -21.9118 0 0
rhand -31.0127 -24.0807 0
rfingers 7.12502 0 0
rthumb -4.29536 -54.0172 0
86
root 9.34819 16.3492 -24.9706 3.75354 -6.72394 2.91703
lfemur -13.3769 2.31091 -27.9596
ltibia 26.8942 -0 0
lfoot -16.4014 9.21902 0.00412979
ltoes -3.16885 0 0
rfemur -25.9462 1.71438 17.8987
rtibia 58.9164 -0 0
rfoot -18.5285 -12.8465 -0.00127968
rtoes -12.4232 0 0
lowerback -5.21184 -1.24261 -4.10386
upperback -1.13517 -1.48578 2.41409
thorax 1.91997 -0.769643 4.70368
lowerneck -22.6935 -4.32941 -12.0171
upperneck 19.9747 -4.88512 11.819
head 10.7895 -1.74589 5.54588
lclavicle -1.73481e-14 -3.18055e-15 0
lhumerus -24.9809 -14.9381 87.0828
lradius 28.7879 -0 0
lwrist 3.75279 0 0
lhand -10.5009 -23.4264 0.00229176
lfingers 7.12502 0 0
lthumb 15.5011 5.97072 0.00186243
rclavicle -1.73481e-14 -3.18055e-15 0
rhumerus -43.6025 13.3414 -88.512
rradius 39.7727 -0 0
rwrist -21.8539 0 0
rhand -30.8228 -23.8793 0.00166868
rfingers 7.12502 0 0
rthumb -4.11197 -53.8191 0.00158553
87
root 9.35454 16.3429 -24.8508 3.7424 -6.37271 2.93076
lfemur -12.7753 2.26751 -28.0153
ltibia 26.6516 -0 0
lfoot -16.7923 8.97694 0.00660777
ltoes -2.83239 0 0
rfemur -26.7063 1.90967 17.8769
rtibia 57.8961 -0 0
rfoot -18.9818 -12.7818 -0.00204753
rtoes -13.2206 0 0
lowerback -5.32132 -1.3062 -4.07958
upperback -1.13825 -1.5684 2.42533
thorax 1.98691 -0.812375 4.69322
lowerneck -22.4781 -4.40654 -12.1543
upperneck 20.0125 -4.97188 11.8076
head 10.779 -1.8043 5.55136
lclavicle -1.5998e-14 -7.95137e-16 0
lhumerus -24.6092 -15.4485 87.1202
lradius 29.343 -0 0
lwrist 4.30077 0 0
lhand -10.8409 -23.5809 0.00366685
lfingers 7.12502 0 0
lthumb 15.1736 5.84039 0.00297992
rclavicle -1.5998e-14 -7.95137e-16 0
rhumerus -43.7314 13.2373 -88.4038
rradius 39.6784 -0 0
rwrist -21.796 0 0
rhand -30.6329 -23.678 0.0026699
rfingers 7.12502 0 0
rthumb -3.92857 -53.6209 0.00253686
88
root 9.36088 16.3366 -24.731 3.73136 -6.02148 2.94441
lfemur -12.1737 2.22469 -28.0715
ltibia 26.4089 -0 0
lfoot -17.1833 8.73484 0.00743378
ltoes -2.49594 0 0
rfemur -27.4666 2.10465 17.8525
rtibia 56.8758 -0 0
rfoot -19.435 -12.7171 -0.00230348
rtoes -14.0179 0 0
lowerback -5.43082 -1.36974 -4.05517
upperback -1.14136 -1.65101 2.43658
thorax 2.05385 -0.855095 4.68272
lowerneck -22.2624 -4.48315 -12.2917
upperneck 20.0504 -5.05863 11.7962
head 10.7684 -1.8627 5.55685
lclavicle -1.46479e-14 1.59028e-15 0
lhumerus -24.237 -15.9591 87.1542
lradius 29.8981 -0 0
lwrist 4.84876 0 0
lhand -11.1808 -23.7354 0.00412522
lfingers 7.12502 0 0
lthumb 14.8461 5.71005 0.00335242
rclavicle -1.46479e-14 1.59028e-15 0
rhumerus -43.8604 13.1335 -88.2953
rradius 39.584 -0 0
rwrist -21.7381 0 0
rhand -30.443 -23.4766 0.00300364
rfingers 7.12502 0 0
rthumb -3.74516 -53.4228 0.00285397
